<svg width="46" height="36" viewBox="0 0 46 36" fill="none" xmlns="http://www.w3.org/2000/svg">
<path opacity="0.05" d="M29.3008 0.09375H45.7656V11.8711C45.7656 16.6367 45.3555 20.3867 44.5352 23.1211C43.6758 25.8945 42.1133 28.375 39.8477 30.5625C37.582 32.75 34.6914 34.4688 31.1758 35.7188L27.9531 28.9219C31.2344 27.8281 33.5977 26.3047 35.043 24.3516C36.4492 22.3984 37.1914 19.8008 37.2695 16.5586H29.3008V0.09375ZM1.82031 0.09375H18.2852V11.8711C18.2852 16.6758 17.875 20.4453 17.0547 23.1797C16.1953 25.9141 14.6328 28.375 12.3672 30.5625C10.0625 32.75 7.17188 34.4688 3.69531 35.7188L0.472656 28.9219C3.75391 27.8281 6.11719 26.3047 7.5625 24.3516C8.96875 22.3984 9.71094 19.8008 9.78906 16.5586H1.82031V0.09375Z" fill="white"/>
</svg>
