<svg width="99" height="100" viewBox="0 0 99 100" fill="none" xmlns="http://www.w3.org/2000/svg">
<g opacity="0.1">
<circle cx="1.72237" cy="63.3269" r="1.72237" fill="white"/>
<circle cx="1.72237" cy="86.2917" r="1.72237" fill="white"/>
<circle cx="1.72237" cy="51.8439" r="1.72237" fill="white"/>
<circle cx="1.72237" cy="74.8093" r="1.72237" fill="white"/>
<circle cx="1.72237" cy="97.7746" r="1.72237" fill="white"/>
<circle cx="24.6873" cy="63.3269" r="1.72237" fill="white"/>
<circle cx="24.6873" cy="86.2919" r="1.72237" fill="white"/>
<circle cx="24.6873" cy="51.8444" r="1.72237" fill="white"/>
<circle cx="24.6873" cy="74.8093" r="1.72237" fill="white"/>
<circle cx="24.6873" cy="97.7749" r="1.72237" fill="white"/>
<circle cx="47.6522" cy="63.3269" r="1.72237" fill="white"/>
<circle cx="47.6522" cy="86.2919" r="1.72237" fill="white"/>
<circle cx="47.6522" cy="51.8444" r="1.72237" fill="white"/>
<circle cx="47.6522" cy="74.8093" r="1.72237" fill="white"/>
<circle cx="47.6522" cy="97.7749" r="1.72237" fill="white"/>
<circle cx="13.2047" cy="63.3269" r="1.72237" fill="white"/>
<circle cx="13.2047" cy="86.2919" r="1.72237" fill="white"/>
<circle cx="13.2047" cy="51.8444" r="1.72237" fill="white"/>
<circle cx="13.2047" cy="74.8093" r="1.72237" fill="white"/>
<circle cx="13.2047" cy="97.7749" r="1.72237" fill="white"/>
<circle cx="36.1698" cy="63.3269" r="1.72237" fill="white"/>
<circle cx="36.1698" cy="86.2919" r="1.72237" fill="white"/>
<circle cx="36.1698" cy="51.8444" r="1.72237" fill="white"/>
<circle cx="36.1698" cy="74.8093" r="1.72237" fill="white"/>
<circle cx="36.1698" cy="97.7749" r="1.72237" fill="white"/>
<rect x="22.1952" y="0.747314" width="76.8048" height="76.4734" rx="10" fill="#D9D9D9"/>
<rect x="38.7378" y="17.2183" width="43.7196" height="43.531" rx="10" fill="#0E1530"/>
</g>
</svg>
